<?xml version="1.0" encoding="utf-8" standalone="no"?>
<!DOCTYPE svg PUBLIC "-//W3C//DTD SVG 1.1//EN"
  "http://www.w3.org/Graphics/SVG/1.1/DTD/svg11.dtd">
<svg xmlns:xlink="http://www.w3.org/1999/xlink" width="864pt" height="432pt" viewBox="0 0 864 432" xmlns="http://www.w3.org/2000/svg" version="1.1">
 <metadata>
  <rdf:RDF xmlns:dc="http://purl.org/dc/elements/1.1/" xmlns:cc="http://creativecommons.org/ns#" xmlns:rdf="http://www.w3.org/1999/02/22-rdf-syntax-ns#">
   <cc:Work>
    <dc:type rdf:resource="http://purl.org/dc/dcmitype/StillImage"/>
    <dc:date>2026-09-22T00:11:46.224700</dc:date>
    <dc:format>image/svg+xml</dc:format>
    <dc:creator>
     <cc:Agent>
      <dc:title>Matplotlib v3.9.2, https://matplotlib.org/</dc:title>
     </cc:Agent>
    </dc:creator>
   </cc:Work>
  </rdf:RDF>
 </metadata>
 <defs>
  <style type="text/css">*{stroke-linejoin: round; stroke-linecap: butt}</style>
 </defs>
 <g id="figure_1">
  <g id="patch_1">
   <path d="M 0 432 
L 864 432 
L 864 0 
L 0 0 
z
"/>
  </g>
  <g id="axes_1">
   <g id="patch_2">
    <path d="M 55.76 382.36 
L 853.2 382.36 
L 853.2 44.991467 
L 55.76 44.991467 
z
" style="fill: #1e293b"/>
   </g>
   <g id="PolyCollection_1">
    <defs>
     <path id="mfa0c50f5c7" d="M 92.007273 -64.974933 
L 92.007273 -152.669408 
L 105.188099 -305.786745 
L 118.368926 -329.334336 
L 131.549752 -348.590001 
L 144.730579 -351.48995 
L 157.911405 -352.997924 
L 171.092231 -330.610313 
L 184.273058 -353.22992 
L 197.453884 -367.03368 
L 210.634711 -356.013872 
L 223.815537 -341.978116 
L 236.996364 -363.785736 
L 250.17719 -352.533932 
L 263.358017 -367.497672 
L 276.538843 -364.829718 
L 289.719669 -362.973751 
L 302.900496 -358.797823 
L 316.081322 -362.509759 
L 329.262149 -350.793962 
L 342.442975 -354.853892 
L 355.623802 -356.593861 
L 368.804628 -357.405847 
L 381.985455 -355.201886 
L 395.166281 -362.857753 
L 408.347107 -366.917682 
L 421.527934 -344.530071 
L 434.70876 -341.978116 
L 447.889587 -331.074305 
L 461.070413 -307.062723 
L 474.25124 -306.714729 
L 487.432066 -308.338701 
L 500.612893 -297.550888 
L 513.793719 -294.998933 
L 526.974545 -360.305797 
L 540.155372 -321.098479 
L 553.336198 -339.658156 
L 566.517025 -351.721946 
L 579.697851 -350.32997 
L 592.878678 -358.333831 
L 606.059504 -354.737894 
L 619.240331 -352.301936 
L 632.421157 -358.565827 
L 645.601983 -347.198025 
L 658.78281 -220.41223 
L 671.963636 -193.036706 
L 685.144463 -197.676625 
L 698.325289 -190.368752 
L 711.506116 -190.716746 
L 724.686942 -197.676625 
L 737.867769 -191.876726 
L 751.048595 -191.06474 
L 764.229421 -198.140617 
L 777.410248 -194.892674 
L 790.591074 -192.920708 
L 803.771901 -199.880587 
L 816.952727 -122.973925 
L 816.952727 -64.974933 
L 816.952727 -64.974933 
L 803.771901 -64.974933 
L 790.591074 -64.974933 
L 777.410248 -64.974933 
L 764.229421 -64.974933 
L 751.048595 -64.974933 
L 737.867769 -64.974933 
L 724.686942 -64.974933 
L 711.506116 -64.974933 
L 698.325289 -64.974933 
L 685.144463 -64.974933 
L 671.963636 -64.974933 
L 658.78281 -64.974933 
L 645.601983 -64.974933 
L 632.421157 -64.974933 
L 619.240331 -64.974933 
L 606.059504 -64.974933 
L 592.878678 -64.974933 
L 579.697851 -64.974933 
L 566.517025 -64.974933 
L 553.336198 -64.974933 
L 540.155372 -64.974933 
L 526.974545 -64.974933 
L 513.793719 -64.974933 
L 500.612893 -64.974933 
L 487.432066 -64.974933 
L 474.25124 -64.974933 
L 461.070413 -64.974933 
L 447.889587 -64.974933 
L 434.70876 -64.974933 
L 421.527934 -64.974933 
L 408.347107 -64.974933 
L 395.166281 -64.974933 
L 381.985455 -64.974933 
L 368.804628 -64.974933 
L 355.623802 -64.974933 
L 342.442975 -64.974933 
L 329.262149 -64.974933 
L 316.081322 -64.974933 
L 302.900496 -64.974933 
L 289.719669 -64.974933 
L 276.538843 -64.974933 
L 263.358017 -64.974933 
L 250.17719 -64.974933 
L 236.996364 -64.974933 
L 223.815537 -64.974933 
L 210.634711 -64.974933 
L 197.453884 -64.974933 
L 184.273058 -64.974933 
L 171.092231 -64.974933 
L 157.911405 -64.974933 
L 144.730579 -64.974933 
L 131.549752 -64.974933 
L 118.368926 -64.974933 
L 105.188099 -64.974933 
L 92.007273 -64.974933 
z
" style="stroke: #38bdf8; stroke-opacity: 0.12"/>
    </defs>
    <g clip-path="url(#pf9f94b3330)">
     <use xlink:href="#mfa0c50f5c7" x="0" y="432" style="fill: #38bdf8; fill-opacity: 0.12; stroke: #38bdf8; stroke-opacity: 0.12"/>
    </g>
   </g>
   <g id="matplotlib.axis_1">
    <g id="xtick_1">
     <g id="line2d_1">
      <path d="M 92.007273 382.36 
L 92.007273 44.991467 
" clip-path="url(#pf9f94b3330)" style="fill: none; stroke-dasharray: 2.96,1.28; stroke-dashoffset: 0; stroke: #334155; stroke-opacity: 0.4; stroke-width: 0.8"/>
     </g>
     <g id="line2d_2">
      <defs>
       <path id="m3fdcce1657" d="M 0 0 
L 0 3.5 
" style="stroke: #94a3b8; stroke-width: 0.8"/>
      </defs>
      <g>
       <use xlink:href="#m3fdcce1657" x="92.007273" y="382.36" style="fill: #94a3b8; stroke: #94a3b8; stroke-width: 0.8"/>
      </g>
     </g>
     <g id="text_1">
      <!-- 0 -->
      <g style="fill: #94a3b8" transform="translate(89.31196 396.763125) scale(0.1 -0.1)">
       <defs>
        <path id="SegoeUI-30" d="M 3188 2259 
Q 3188 1697 3086 1262 
Q 2984 828 2792 529 
Q 2600 231 2320 76 
Q 2041 -78 1684 -78 
Q 1347 -78 1083 70 
Q 819 219 637 503 
Q 456 788 362 1202 
Q 269 1616 269 2150 
Q 269 2738 367 3188 
Q 466 3638 656 3942 
Q 847 4247 1130 4401 
Q 1413 4556 1778 4556 
Q 3188 4556 3188 2259 
z
M 2663 2209 
Q 2663 4122 1753 4122 
Q 794 4122 794 2175 
Q 794 359 1734 359 
Q 2663 359 2663 2209 
z
" transform="scale(0.015625)"/>
       </defs>
       <use xlink:href="#SegoeUI-30"/>
      </g>
     </g>
    </g>
    <g id="xtick_2">
     <g id="line2d_3">
      <path d="M 223.815537 382.36 
L 223.815537 44.991467 
" clip-path="url(#pf9f94b3330)" style="fill: none; stroke-dasharray: 2.96,1.28; stroke-dashoffset: 0; stroke: #334155; stroke-opacity: 0.4; stroke-width: 0.8"/>
     </g>
     <g id="line2d_4">
      <g>
       <use xlink:href="#m3fdcce1657" x="223.815537" y="382.36" style="fill: #94a3b8; stroke: #94a3b8; stroke-width: 0.8"/>
      </g>
     </g>
     <g id="text_2">
      <!-- 100 -->
      <g style="fill: #94a3b8" transform="translate(215.7296 396.763125) scale(0.1 -0.1)">
       <defs>
        <path id="SegoeUI-31" d="M 2263 0 
L 1750 0 
L 1750 3872 
Q 1691 3813 1577 3736 
Q 1463 3659 1320 3584 
Q 1178 3509 1020 3443 
Q 863 3378 713 3341 
L 713 3859 
Q 881 3906 1070 3986 
Q 1259 4066 1442 4164 
Q 1625 4263 1787 4370 
Q 1950 4478 2069 4581 
L 2263 4581 
L 2263 0 
z
" transform="scale(0.015625)"/>
       </defs>
       <use xlink:href="#SegoeUI-31"/>
       <use xlink:href="#SegoeUI-30" x="53.90625"/>
       <use xlink:href="#SegoeUI-30" x="107.8125"/>
      </g>
     </g>
    </g>
    <g id="xtick_3">
     <g id="line2d_5">
      <path d="M 355.623802 382.36 
L 355.623802 44.991467 
" clip-path="url(#pf9f94b3330)" style="fill: none; stroke-dasharray: 2.96,1.28; stroke-dashoffset: 0; stroke: #334155; stroke-opacity: 0.4; stroke-width: 0.8"/>
     </g>
     <g id="line2d_6">
      <g>
       <use xlink:href="#m3fdcce1657" x="355.623802" y="382.36" style="fill: #94a3b8; stroke: #94a3b8; stroke-width: 0.8"/>
      </g>
     </g>
     <g id="text_3">
      <!-- 200 -->
      <g style="fill: #94a3b8" transform="translate(347.537864 396.763125) scale(0.1 -0.1)">
       <defs>
        <path id="SegoeUI-32" d="M 2413 3306 
Q 2413 3513 2348 3666 
Q 2284 3819 2173 3920 
Q 2063 4022 1913 4072 
Q 1763 4122 1588 4122 
Q 1438 4122 1294 4081 
Q 1150 4041 1014 3969 
Q 878 3897 751 3797 
Q 625 3697 516 3575 
L 516 4125 
Q 731 4334 998 4445 
Q 1266 4556 1650 4556 
Q 1925 4556 2159 4476 
Q 2394 4397 2566 4244 
Q 2738 4091 2836 3866 
Q 2934 3641 2934 3350 
Q 2934 3084 2873 2868 
Q 2813 2653 2689 2462 
Q 2566 2272 2378 2097 
Q 2191 1922 1938 1741 
Q 1622 1516 1417 1356 
Q 1213 1197 1092 1058 
Q 972 919 923 780 
Q 875 641 875 459 
L 3106 459 
L 3106 0 
L 341 0 
L 341 222 
Q 341 509 403 728 
Q 466 947 609 1144 
Q 753 1341 986 1537 
Q 1219 1734 1556 1981 
Q 1800 2156 1964 2315 
Q 2128 2475 2228 2634 
Q 2328 2794 2370 2958 
Q 2413 3122 2413 3306 
z
" transform="scale(0.015625)"/>
       </defs>
       <use xlink:href="#SegoeUI-32"/>
       <use xlink:href="#SegoeUI-30" x="53.90625"/>
       <use xlink:href="#SegoeUI-30" x="107.8125"/>
      </g>
     </g>
    </g>
    <g id="xtick_4">
     <g id="line2d_7">
      <path d="M 487.432066 382.36 
L 487.432066 44.991467 
" clip-path="url(#pf9f94b3330)" style="fill: none; stroke-dasharray: 2.96,1.28; stroke-dashoffset: 0; stroke: #334155; stroke-opacity: 0.4; stroke-width: 0.8"/>
     </g>
     <g id="line2d_8">
      <g>
       <use xlink:href="#m3fdcce1657" x="487.432066" y="382.36" style="fill: #94a3b8; stroke: #94a3b8; stroke-width: 0.8"/>
      </g>
     </g>
     <g id="text_4">
      <!-- 300 -->
      <g style="fill: #94a3b8" transform="translate(479.346129 396.763125) scale(0.1 -0.1)">
       <defs>
        <path id="SegoeUI-33" d="M 2978 1269 
Q 2978 966 2864 717 
Q 2750 469 2542 292 
Q 2334 116 2043 19 
Q 1753 -78 1403 -78 
Q 763 -78 384 166 
L 384 716 
Q 838 359 1422 359 
Q 1656 359 1845 418 
Q 2034 478 2170 590 
Q 2306 703 2379 862 
Q 2453 1022 2453 1222 
Q 2453 2100 1203 2100 
L 831 2100 
L 831 2534 
L 1184 2534 
Q 2291 2534 2291 3359 
Q 2291 4122 1447 4122 
Q 972 4122 556 3803 
L 556 4300 
Q 984 4556 1575 4556 
Q 1856 4556 2084 4478 
Q 2313 4400 2475 4259 
Q 2638 4119 2727 3922 
Q 2816 3725 2816 3488 
Q 2816 2603 1922 2350 
L 1922 2338 
Q 2150 2313 2344 2227 
Q 2538 2141 2678 2003 
Q 2819 1866 2898 1680 
Q 2978 1494 2978 1269 
z
" transform="scale(0.015625)"/>
       </defs>
       <use xlink:href="#SegoeUI-33"/>
       <use xlink:href="#SegoeUI-30" x="53.90625"/>
       <use xlink:href="#SegoeUI-30" x="107.8125"/>
      </g>
     </g>
    </g>
    <g id="xtick_5">
     <g id="line2d_9">
      <path d="M 619.240331 382.36 
L 619.240331 44.991467 
" clip-path="url(#pf9f94b3330)" style="fill: none; stroke-dasharray: 2.96,1.28; stroke-dashoffset: 0; stroke: #334155; stroke-opacity: 0.4; stroke-width: 0.8"/>
     </g>
     <g id="line2d_10">
      <g>
       <use xlink:href="#m3fdcce1657" x="619.240331" y="382.36" style="fill: #94a3b8; stroke: #94a3b8; stroke-width: 0.8"/>
      </g>
     </g>
     <g id="text_5">
      <!-- 400 -->
      <g style="fill: #94a3b8" transform="translate(611.154393 396.763125) scale(0.1 -0.1)">
       <defs>
        <path id="SegoeUI-34" d="M 2656 4481 
L 2656 1522 
L 3231 1522 
L 3231 1053 
L 2656 1053 
L 2656 0 
L 2150 0 
L 2150 1053 
L 44 1053 
L 44 1497 
Q 338 1828 638 2204 
Q 938 2581 1211 2968 
Q 1484 3356 1717 3742 
Q 1950 4128 2109 4481 
L 2656 4481 
z
M 622 1522 
L 2150 1522 
L 2150 3716 
Q 1916 3306 1706 2984 
Q 1497 2663 1308 2400 
Q 1119 2138 947 1925 
Q 775 1713 622 1522 
z
" transform="scale(0.015625)"/>
       </defs>
       <use xlink:href="#SegoeUI-34"/>
       <use xlink:href="#SegoeUI-30" x="53.90625"/>
       <use xlink:href="#SegoeUI-30" x="107.8125"/>
      </g>
     </g>
    </g>
    <g id="xtick_6">
     <g id="line2d_11">
      <path d="M 751.048595 382.36 
L 751.048595 44.991467 
" clip-path="url(#pf9f94b3330)" style="fill: none; stroke-dasharray: 2.96,1.28; stroke-dashoffset: 0; stroke: #334155; stroke-opacity: 0.4; stroke-width: 0.8"/>
     </g>
     <g id="line2d_12">
      <g>
       <use xlink:href="#m3fdcce1657" x="751.048595" y="382.36" style="fill: #94a3b8; stroke: #94a3b8; stroke-width: 0.8"/>
      </g>
     </g>
     <g id="text_6">
      <!-- 500 -->
      <g style="fill: #94a3b8" transform="translate(742.962658 396.763125) scale(0.1 -0.1)">
       <defs>
        <path id="SegoeUI-35" d="M 3028 1369 
Q 3028 1041 2915 775 
Q 2803 509 2595 318 
Q 2388 128 2094 25 
Q 1800 -78 1441 -78 
Q 816 -78 513 109 
L 513 653 
Q 969 359 1447 359 
Q 1691 359 1886 431 
Q 2081 503 2218 631 
Q 2356 759 2429 940 
Q 2503 1122 2503 1338 
Q 2503 1775 2209 2023 
Q 1916 2272 1356 2272 
Q 1266 2272 1166 2269 
Q 1066 2266 966 2261 
Q 866 2256 770 2250 
Q 675 2244 597 2234 
L 750 4481 
L 2822 4481 
L 2822 4019 
L 1194 4019 
L 1103 2703 
Q 1203 2709 1315 2714 
Q 1428 2719 1516 2719 
Q 1872 2719 2153 2625 
Q 2434 2531 2629 2357 
Q 2825 2184 2926 1932 
Q 3028 1681 3028 1369 
z
" transform="scale(0.015625)"/>
       </defs>
       <use xlink:href="#SegoeUI-35"/>
       <use xlink:href="#SegoeUI-30" x="53.90625"/>
       <use xlink:href="#SegoeUI-30" x="107.8125"/>
      </g>
     </g>
    </g>
    <g id="text_7">
     <!-- Elapsed Time (Seconds) -->
     <g style="fill: #f8fafc" transform="translate(392.295625 417.946875) scale(0.12 -0.12)">
      <defs>
       <path id="SegoeUI-45" d="M 2963 0 
L 588 0 
L 588 4481 
L 2863 4481 
L 2863 4006 
L 1113 4006 
L 1113 2516 
L 2731 2516 
L 2731 2044 
L 1113 2044 
L 1113 475 
L 2963 475 
L 2963 0 
z
" transform="scale(0.015625)"/>
       <path id="SegoeUI-6c" d="M 1031 0 
L 519 0 
L 519 4738 
L 1031 4738 
L 1031 0 
z
" transform="scale(0.015625)"/>
       <path id="SegoeUI-61" d="M 2809 0 
L 2297 0 
L 2297 500 
L 2284 500 
Q 1950 -75 1300 -75 
Q 822 -75 551 178 
Q 281 431 281 850 
Q 281 1747 1338 1894 
L 2297 2028 
Q 2297 2844 1638 2844 
Q 1059 2844 594 2450 
L 594 2975 
Q 1066 3275 1681 3275 
Q 2809 3275 2809 2081 
L 2809 0 
z
M 2297 1619 
L 1525 1513 
Q 1169 1463 987 1336 
Q 806 1209 806 888 
Q 806 653 973 504 
Q 1141 356 1419 356 
Q 1800 356 2048 623 
Q 2297 891 2297 1300 
L 2297 1619 
z
" transform="scale(0.015625)"/>
       <path id="SegoeUI-70" d="M 1044 463 
L 1031 463 
L 1031 -1472 
L 519 -1472 
L 519 3200 
L 1031 3200 
L 1031 2638 
L 1044 2638 
Q 1422 3275 2150 3275 
Q 2769 3275 3116 2845 
Q 3463 2416 3463 1694 
Q 3463 891 3072 408 
Q 2681 -75 2003 -75 
Q 1381 -75 1044 463 
z
M 1031 1753 
L 1031 1306 
Q 1031 909 1289 632 
Q 1547 356 1944 356 
Q 2409 356 2673 712 
Q 2938 1069 2938 1703 
Q 2938 2238 2691 2541 
Q 2444 2844 2022 2844 
Q 1575 2844 1303 2533 
Q 1031 2222 1031 1753 
z
" transform="scale(0.015625)"/>
       <path id="SegoeUI-73" d="M 325 116 
L 325 666 
Q 744 356 1247 356 
Q 1922 356 1922 806 
Q 1922 934 1864 1023 
Q 1806 1113 1707 1181 
Q 1609 1250 1476 1304 
Q 1344 1359 1191 1419 
Q 978 1503 817 1589 
Q 656 1675 548 1783 
Q 441 1891 386 2028 
Q 331 2166 331 2350 
Q 331 2575 434 2748 
Q 538 2922 709 3039 
Q 881 3156 1101 3215 
Q 1322 3275 1556 3275 
Q 1972 3275 2300 3131 
L 2300 2613 
Q 1947 2844 1488 2844 
Q 1344 2844 1228 2811 
Q 1113 2778 1030 2718 
Q 947 2659 901 2576 
Q 856 2494 856 2394 
Q 856 2269 901 2184 
Q 947 2100 1034 2034 
Q 1122 1969 1247 1916 
Q 1372 1863 1531 1800 
Q 1744 1719 1912 1633 
Q 2081 1547 2200 1439 
Q 2319 1331 2383 1190 
Q 2447 1050 2447 856 
Q 2447 619 2342 444 
Q 2238 269 2063 153 
Q 1888 38 1659 -18 
Q 1431 -75 1181 -75 
Q 688 -75 325 116 
z
" transform="scale(0.015625)"/>
       <path id="SegoeUI-65" d="M 3091 1472 
L 831 1472 
Q 844 938 1119 647 
Q 1394 356 1875 356 
Q 2416 356 2869 713 
L 2869 231 
Q 2447 -75 1753 -75 
Q 1075 -75 687 361 
Q 300 797 300 1588 
Q 300 2334 723 2804 
Q 1147 3275 1775 3275 
Q 2403 3275 2747 2869 
Q 3091 2463 3091 1741 
L 3091 1472 
z
M 2566 1906 
Q 2563 2350 2352 2597 
Q 2141 2844 1766 2844 
Q 1403 2844 1150 2584 
Q 897 2325 838 1906 
L 2566 1906 
z
" transform="scale(0.015625)"/>
       <path id="SegoeUI-64" d="M 3250 0 
L 2738 0 
L 2738 544 
L 2725 544 
Q 2369 -75 1625 -75 
Q 1022 -75 661 354 
Q 300 784 300 1525 
Q 300 2319 700 2797 
Q 1100 3275 1766 3275 
Q 2425 3275 2725 2756 
L 2738 2756 
L 2738 4738 
L 3250 4738 
L 3250 0 
z
M 2738 1447 
L 2738 1919 
Q 2738 2306 2481 2575 
Q 2225 2844 1831 2844 
Q 1363 2844 1094 2500 
Q 825 2156 825 1550 
Q 825 997 1083 676 
Q 1341 356 1775 356 
Q 2203 356 2470 665 
Q 2738 975 2738 1447 
z
" transform="scale(0.015625)"/>
       <path id="SegoeUI-20" transform="scale(0.015625)"/>
       <path id="SegoeUI-54" d="M 3238 4006 
L 1944 4006 
L 1944 0 
L 1419 0 
L 1419 4006 
L 128 4006 
L 128 4481 
L 3238 4481 
L 3238 4006 
z
" transform="scale(0.015625)"/>
       <path id="SegoeUI-69" d="M 781 4013 
Q 644 4013 547 4106 
Q 450 4200 450 4344 
Q 450 4488 547 4583 
Q 644 4678 781 4678 
Q 922 4678 1020 4583 
Q 1119 4488 1119 4344 
Q 1119 4206 1020 4109 
Q 922 4013 781 4013 
z
M 1031 0 
L 519 0 
L 519 3200 
L 1031 3200 
L 1031 0 
z
" transform="scale(0.015625)"/>
       <path id="SegoeUI-6d" d="M 5063 0 
L 4550 0 
L 4550 1838 
Q 4550 2369 4386 2606 
Q 4222 2844 3834 2844 
Q 3506 2844 3276 2544 
Q 3047 2244 3047 1825 
L 3047 0 
L 2534 0 
L 2534 1900 
Q 2534 2844 1806 2844 
Q 1469 2844 1250 2561 
Q 1031 2278 1031 1825 
L 1031 0 
L 519 0 
L 519 3200 
L 1031 3200 
L 1031 2694 
L 1044 2694 
Q 1384 3275 2038 3275 
Q 2366 3275 2609 3092 
Q 2853 2909 2944 2613 
Q 3300 3275 4006 3275 
Q 5063 3275 5063 1972 
L 5063 0 
z
" transform="scale(0.015625)"/>
       <path id="SegoeUI-28" d="M 1863 -1019 
L 1406 -1019 
Q 438 88 438 1709 
Q 438 3338 1406 4481 
L 1869 4481 
Q 888 3294 888 1716 
Q 888 150 1863 -1019 
z
" transform="scale(0.015625)"/>
       <path id="SegoeUI-53" d="M 378 181 
L 378 800 
Q 484 706 632 631 
Q 781 556 945 504 
Q 1109 453 1275 425 
Q 1441 397 1581 397 
Q 2066 397 2305 576 
Q 2544 756 2544 1094 
Q 2544 1275 2464 1409 
Q 2384 1544 2243 1655 
Q 2103 1766 1911 1867 
Q 1719 1969 1497 2081 
Q 1263 2200 1059 2322 
Q 856 2444 706 2591 
Q 556 2738 470 2923 
Q 384 3109 384 3359 
Q 384 3666 518 3892 
Q 653 4119 872 4266 
Q 1091 4413 1370 4484 
Q 1650 4556 1941 4556 
Q 2603 4556 2906 4397 
L 2906 3806 
Q 2509 4081 1888 4081 
Q 1716 4081 1544 4045 
Q 1372 4009 1237 3928 
Q 1103 3847 1018 3719 
Q 934 3591 934 3406 
Q 934 3234 998 3109 
Q 1063 2984 1188 2881 
Q 1313 2778 1492 2681 
Q 1672 2584 1906 2469 
Q 2147 2350 2362 2219 
Q 2578 2088 2740 1928 
Q 2903 1769 2998 1575 
Q 3094 1381 3094 1131 
Q 3094 800 2964 570 
Q 2834 341 2614 197 
Q 2394 53 2106 -11 
Q 1819 -75 1500 -75 
Q 1394 -75 1237 -58 
Q 1081 -41 918 -8 
Q 756 25 611 73 
Q 466 122 378 181 
z
" transform="scale(0.015625)"/>
       <path id="SegoeUI-63" d="M 2700 147 
Q 2331 -75 1825 -75 
Q 1141 -75 720 370 
Q 300 816 300 1525 
Q 300 2316 753 2795 
Q 1206 3275 1963 3275 
Q 2384 3275 2706 3119 
L 2706 2594 
Q 2350 2844 1944 2844 
Q 1453 2844 1139 2492 
Q 825 2141 825 1569 
Q 825 1006 1120 681 
Q 1416 356 1913 356 
Q 2331 356 2700 634 
L 2700 147 
z
" transform="scale(0.015625)"/>
       <path id="SegoeUI-6f" d="M 1856 -75 
Q 1147 -75 723 373 
Q 300 822 300 1563 
Q 300 2369 740 2822 
Q 1181 3275 1931 3275 
Q 2647 3275 3048 2834 
Q 3450 2394 3450 1613 
Q 3450 847 3017 386 
Q 2584 -75 1856 -75 
z
M 1894 2844 
Q 1400 2844 1112 2508 
Q 825 2172 825 1581 
Q 825 1013 1115 684 
Q 1406 356 1894 356 
Q 2391 356 2658 678 
Q 2925 1000 2925 1594 
Q 2925 2194 2658 2519 
Q 2391 2844 1894 2844 
z
" transform="scale(0.015625)"/>
       <path id="SegoeUI-6e" d="M 3175 0 
L 2663 0 
L 2663 1825 
Q 2663 2844 1919 2844 
Q 1534 2844 1282 2555 
Q 1031 2266 1031 1825 
L 1031 0 
L 519 0 
L 519 3200 
L 1031 3200 
L 1031 2669 
L 1044 2669 
Q 1406 3275 2094 3275 
Q 2619 3275 2897 2936 
Q 3175 2597 3175 1956 
L 3175 0 
z
" transform="scale(0.015625)"/>
       <path id="SegoeUI-29" d="M 531 -1019 
L 75 -1019 
Q 1050 150 1050 1716 
Q 1050 3294 69 4481 
L 531 4481 
Q 1506 3338 1506 1709 
Q 1506 88 531 -1019 
z
" transform="scale(0.015625)"/>
      </defs>
      <use xlink:href="#SegoeUI-45"/>
      <use xlink:href="#SegoeUI-6c" x="50.585938"/>
      <use xlink:href="#SegoeUI-61" x="74.804688"/>
      <use xlink:href="#SegoeUI-70" x="125.683594"/>
      <use xlink:href="#SegoeUI-73" x="184.472656"/>
      <use xlink:href="#SegoeUI-65" x="226.904297"/>
      <use xlink:href="#SegoeUI-64" x="279.199219"/>
      <use xlink:href="#SegoeUI-20" x="338.085938"/>
      <use xlink:href="#SegoeUI-54" x="365.478516"/>
      <use xlink:href="#SegoeUI-69" x="417.871094"/>
      <use xlink:href="#SegoeUI-6d" x="442.089844"/>
      <use xlink:href="#SegoeUI-65" x="528.222656"/>
      <use xlink:href="#SegoeUI-20" x="580.517578"/>
      <use xlink:href="#SegoeUI-28" x="607.910156"/>
      <use xlink:href="#SegoeUI-53" x="638.085938"/>
      <use xlink:href="#SegoeUI-65" x="691.210938"/>
      <use xlink:href="#SegoeUI-63" x="743.505859"/>
      <use xlink:href="#SegoeUI-6f" x="789.697266"/>
      <use xlink:href="#SegoeUI-6e" x="848.291016"/>
      <use xlink:href="#SegoeUI-64" x="904.882812"/>
      <use xlink:href="#SegoeUI-73" x="963.769531"/>
      <use xlink:href="#SegoeUI-29" x="1006.201172"/>
     </g>
    </g>
   </g>
   <g id="matplotlib.axis_2">
    <g id="ytick_1">
     <g id="line2d_13">
      <path d="M 55.76 367.025067 
L 853.2 367.025067 
" clip-path="url(#pf9f94b3330)" style="fill: none; stroke-dasharray: 2.96,1.28; stroke-dashoffset: 0; stroke: #334155; stroke-opacity: 0.4; stroke-width: 0.8"/>
     </g>
     <g id="line2d_14">
      <defs>
       <path id="m737a5a4eea" d="M 0 0 
L -3.5 0 
" style="stroke: #94a3b8; stroke-width: 0.8"/>
      </defs>
      <g>
       <use xlink:href="#m737a5a4eea" x="55.76" y="367.025067" style="fill: #94a3b8; stroke: #94a3b8; stroke-width: 0.8"/>
      </g>
     </g>
     <g id="text_8">
      <!-- 0 -->
      <g style="fill: #94a3b8" transform="translate(43.369375 370.726629) scale(0.1 -0.1)">
       <use xlink:href="#SegoeUI-30"/>
      </g>
     </g>
    </g>
    <g id="ytick_2">
     <g id="line2d_15">
      <path d="M 55.76 309.026075 
L 853.2 309.026075 
" clip-path="url(#pf9f94b3330)" style="fill: none; stroke-dasharray: 2.96,1.28; stroke-dashoffset: 0; stroke: #334155; stroke-opacity: 0.4; stroke-width: 0.8"/>
     </g>
     <g id="line2d_16">
      <g>
       <use xlink:href="#m737a5a4eea" x="55.76" y="309.026075" style="fill: #94a3b8; stroke: #94a3b8; stroke-width: 0.8"/>
      </g>
     </g>
     <g id="text_9">
      <!-- 50 -->
      <g style="fill: #94a3b8" transform="translate(37.97875 312.727638) scale(0.1 -0.1)">
       <use xlink:href="#SegoeUI-35"/>
       <use xlink:href="#SegoeUI-30" x="53.90625"/>
      </g>
     </g>
    </g>
    <g id="ytick_3">
     <g id="line2d_17">
      <path d="M 55.76 251.027084 
L 853.2 251.027084 
" clip-path="url(#pf9f94b3330)" style="fill: none; stroke-dasharray: 2.96,1.28; stroke-dashoffset: 0; stroke: #334155; stroke-opacity: 0.4; stroke-width: 0.8"/>
     </g>
     <g id="line2d_18">
      <g>
       <use xlink:href="#m737a5a4eea" x="55.76" y="251.027084" style="fill: #94a3b8; stroke: #94a3b8; stroke-width: 0.8"/>
      </g>
     </g>
     <g id="text_10">
      <!-- 100 -->
      <g style="fill: #94a3b8" transform="translate(32.588125 254.728647) scale(0.1 -0.1)">
       <use xlink:href="#SegoeUI-31"/>
       <use xlink:href="#SegoeUI-30" x="53.90625"/>
       <use xlink:href="#SegoeUI-30" x="107.8125"/>
      </g>
     </g>
    </g>
    <g id="ytick_4">
     <g id="line2d_19">
      <path d="M 55.76 193.028093 
L 853.2 193.028093 
" clip-path="url(#pf9f94b3330)" style="fill: none; stroke-dasharray: 2.96,1.28; stroke-dashoffset: 0; stroke: #334155; stroke-opacity: 0.4; stroke-width: 0.8"/>
     </g>
     <g id="line2d_20">
      <g>
       <use xlink:href="#m737a5a4eea" x="55.76" y="193.028093" style="fill: #94a3b8; stroke: #94a3b8; stroke-width: 0.8"/>
      </g>
     </g>
     <g id="text_11">
      <!-- 150 -->
      <g style="fill: #94a3b8" transform="translate(32.588125 196.729655) scale(0.1 -0.1)">
       <use xlink:href="#SegoeUI-31"/>
       <use xlink:href="#SegoeUI-35" x="53.90625"/>
       <use xlink:href="#SegoeUI-30" x="107.8125"/>
      </g>
     </g>
    </g>
    <g id="ytick_5">
     <g id="line2d_21">
      <path d="M 55.76 135.029102 
L 853.2 135.029102 
" clip-path="url(#pf9f94b3330)" style="fill: none; stroke-dasharray: 2.96,1.28; stroke-dashoffset: 0; stroke: #334155; stroke-opacity: 0.4; stroke-width: 0.8"/>
     </g>
     <g id="line2d_22">
      <g>
       <use xlink:href="#m737a5a4eea" x="55.76" y="135.029102" style="fill: #94a3b8; stroke: #94a3b8; stroke-width: 0.8"/>
      </g>
     </g>
     <g id="text_12">
      <!-- 200 -->
      <g style="fill: #94a3b8" transform="translate(32.588125 138.730664) scale(0.1 -0.1)">
       <use xlink:href="#SegoeUI-32"/>
       <use xlink:href="#SegoeUI-30" x="53.90625"/>
       <use xlink:href="#SegoeUI-30" x="107.8125"/>
      </g>
     </g>
    </g>
    <g id="ytick_6">
     <g id="line2d_23">
      <path d="M 55.76 77.03011 
L 853.2 77.03011 
" clip-path="url(#pf9f94b3330)" style="fill: none; stroke-dasharray: 2.96,1.28; stroke-dashoffset: 0; stroke: #334155; stroke-opacity: 0.4; stroke-width: 0.8"/>
     </g>
     <g id="line2d_24">
      <g>
       <use xlink:href="#m737a5a4eea" x="55.76" y="77.03011" style="fill: #94a3b8; stroke: #94a3b8; stroke-width: 0.8"/>
      </g>
     </g>
     <g id="text_13">
      <!-- 250 -->
      <g style="fill: #94a3b8" transform="translate(32.588125 80.731673) scale(0.1 -0.1)">
       <use xlink:href="#SegoeUI-32"/>
       <use xlink:href="#SegoeUI-35" x="53.90625"/>
       <use xlink:href="#SegoeUI-30" x="107.8125"/>
      </g>
     </g>
    </g>
    <g id="text_14">
     <!-- Throughput (Operations / Sec) -->
     <g style="fill: #f8fafc" transform="translate(19.764375 294.272609) rotate(-90) scale(0.12 -0.12)">
      <defs>
       <path id="SegoeUI-68" d="M 3175 0 
L 2663 0 
L 2663 1844 
Q 2663 2844 1919 2844 
Q 1544 2844 1287 2555 
Q 1031 2266 1031 1813 
L 1031 0 
L 519 0 
L 519 4738 
L 1031 4738 
L 1031 2669 
L 1044 2669 
Q 1413 3275 2094 3275 
Q 3175 3275 3175 1972 
L 3175 0 
z
" transform="scale(0.015625)"/>
       <path id="SegoeUI-72" d="M 2188 2681 
Q 2053 2784 1800 2784 
Q 1472 2784 1251 2475 
Q 1031 2166 1031 1631 
L 1031 0 
L 519 0 
L 519 3200 
L 1031 3200 
L 1031 2541 
L 1044 2541 
Q 1153 2878 1378 3067 
Q 1603 3256 1881 3256 
Q 2081 3256 2188 3213 
L 2188 2681 
z
" transform="scale(0.015625)"/>
       <path id="SegoeUI-75" d="M 3106 0 
L 2594 0 
L 2594 506 
L 2581 506 
Q 2263 -75 1594 -75 
Q 450 -75 450 1288 
L 450 3200 
L 959 3200 
L 959 1369 
Q 959 356 1734 356 
Q 2109 356 2351 632 
Q 2594 909 2594 1356 
L 2594 3200 
L 3106 3200 
L 3106 0 
z
" transform="scale(0.015625)"/>
       <path id="SegoeUI-67" d="M 3250 256 
Q 3250 -1506 1563 -1506 
Q 969 -1506 525 -1281 
L 525 -769 
Q 1066 -1069 1556 -1069 
Q 2738 -1069 2738 188 
L 2738 538 
L 2725 538 
Q 2359 -75 1625 -75 
Q 1028 -75 664 351 
Q 300 778 300 1497 
Q 300 2313 692 2794 
Q 1084 3275 1766 3275 
Q 2413 3275 2725 2756 
L 2738 2756 
L 2738 3200 
L 3250 3200 
L 3250 256 
z
M 2738 1447 
L 2738 1919 
Q 2738 2300 2480 2572 
Q 2222 2844 1838 2844 
Q 1363 2844 1094 2498 
Q 825 2153 825 1531 
Q 825 997 1083 676 
Q 1341 356 1766 356 
Q 2197 356 2467 662 
Q 2738 969 2738 1447 
z
" transform="scale(0.015625)"/>
       <path id="SegoeUI-74" d="M 2003 31 
Q 1822 -69 1525 -69 
Q 684 -69 684 869 
L 684 2763 
L 134 2763 
L 134 3200 
L 684 3200 
L 684 3981 
L 1197 4147 
L 1197 3200 
L 2003 3200 
L 2003 2763 
L 1197 2763 
L 1197 959 
Q 1197 638 1306 500 
Q 1416 363 1669 363 
Q 1863 363 2003 469 
L 2003 31 
z
" transform="scale(0.015625)"/>
       <path id="SegoeUI-4f" d="M 2394 -75 
Q 1441 -75 867 553 
Q 294 1181 294 2188 
Q 294 3269 878 3912 
Q 1463 4556 2469 4556 
Q 3397 4556 3964 3931 
Q 4531 3306 4531 2297 
Q 4531 1200 3950 562 
Q 3369 -75 2394 -75 
z
M 2431 4081 
Q 1725 4081 1284 3572 
Q 844 3063 844 2234 
Q 844 1406 1273 901 
Q 1703 397 2394 397 
Q 3131 397 3556 878 
Q 3981 1359 3981 2225 
Q 3981 3113 3568 3597 
Q 3156 4081 2431 4081 
z
" transform="scale(0.015625)"/>
       <path id="SegoeUI-2f" d="M 2541 4481 
L 391 -744 
L -88 -744 
L 2056 4481 
L 2541 4481 
z
" transform="scale(0.015625)"/>
      </defs>
      <use xlink:href="#SegoeUI-54"/>
      <use xlink:href="#SegoeUI-68" x="52.392578"/>
      <use xlink:href="#SegoeUI-72" x="108.984375"/>
      <use xlink:href="#SegoeUI-6f" x="142.375"/>
      <use xlink:href="#SegoeUI-75" x="200.96875"/>
      <use xlink:href="#SegoeUI-67" x="257.560547"/>
      <use xlink:href="#SegoeUI-68" x="316.447266"/>
      <use xlink:href="#SegoeUI-70" x="373.039062"/>
      <use xlink:href="#SegoeUI-75" x="431.828125"/>
      <use xlink:href="#SegoeUI-74" x="488.419922"/>
      <use xlink:href="#SegoeUI-20" x="522.306641"/>
      <use xlink:href="#SegoeUI-28" x="549.699219"/>
      <use xlink:href="#SegoeUI-4f" x="579.875"/>
      <use xlink:href="#SegoeUI-70" x="655.265625"/>
      <use xlink:href="#SegoeUI-65" x="714.054688"/>
      <use xlink:href="#SegoeUI-72" x="766.349609"/>
      <use xlink:href="#SegoeUI-61" x="801.115234"/>
      <use xlink:href="#SegoeUI-74" x="851.994141"/>
      <use xlink:href="#SegoeUI-69" x="885.880859"/>
      <use xlink:href="#SegoeUI-6f" x="910.099609"/>
      <use xlink:href="#SegoeUI-6e" x="968.693359"/>
      <use xlink:href="#SegoeUI-73" x="1025.285156"/>
      <use xlink:href="#SegoeUI-20" x="1067.716797"/>
      <use xlink:href="#SegoeUI-2f" x="1095.109375"/>
      <use xlink:href="#SegoeUI-20" x="1134.074219"/>
      <use xlink:href="#SegoeUI-53" x="1161.466797"/>
      <use xlink:href="#SegoeUI-65" x="1214.591797"/>
      <use xlink:href="#SegoeUI-63" x="1266.886719"/>
      <use xlink:href="#SegoeUI-29" x="1313.078125"/>
     </g>
    </g>
   </g>
   <g id="line2d_25">
    <path d="M 92.007273 279.330592 
L 105.188099 126.213255 
L 118.368926 102.665664 
L 131.549752 83.409999 
L 144.730579 80.51005 
L 157.911405 79.002076 
L 171.092231 101.389687 
L 184.273058 78.77008 
L 197.453884 64.96632 
L 210.634711 75.986128 
L 223.815537 90.021884 
L 236.996364 68.214264 
L 250.17719 79.466068 
L 263.358017 64.502328 
L 276.538843 67.170282 
L 289.719669 69.026249 
L 302.900496 73.202177 
L 316.081322 69.490241 
L 329.262149 81.206038 
L 342.442975 77.146108 
L 355.623802 75.406139 
L 368.804628 74.594153 
L 381.985455 76.798114 
L 395.166281 69.142247 
L 408.347107 65.082318 
L 421.527934 87.469929 
L 434.70876 90.021884 
L 447.889587 100.925695 
L 461.070413 124.937277 
L 474.25124 125.285271 
L 487.432066 123.661299 
L 500.612893 134.449112 
L 513.793719 137.001067 
L 526.974545 71.694203 
L 540.155372 110.901521 
L 553.336198 92.341844 
L 566.517025 80.278054 
L 579.697851 81.67003 
L 592.878678 73.666169 
L 606.059504 77.262106 
L 619.240331 79.698064 
L 632.421157 73.434173 
L 645.601983 84.801975 
L 658.78281 211.58777 
L 671.963636 238.963294 
L 685.144463 234.323375 
L 698.325289 241.631248 
L 711.506116 241.283254 
L 724.686942 234.323375 
L 737.867769 240.123274 
L 751.048595 240.93526 
L 764.229421 233.859383 
L 777.410248 237.107326 
L 790.591074 239.079292 
L 803.771901 232.119413 
L 816.952727 309.026075 
" clip-path="url(#pf9f94b3330)" style="fill: none; stroke: #38bdf8; stroke-opacity: 0.95; stroke-width: 2.5; stroke-linecap: square"/>
   </g>
   <g id="line2d_26">
    <path d="M 92.007273 262.16289 
L 105.188099 142.684968 
L 118.368926 102.781662 
L 131.549752 85.729959 
L 144.730579 66.938286 
L 157.911405 74.246159 
L 171.092231 114.381461 
L 184.273058 73.782167 
L 197.453884 66.242298 
L 210.634711 86.077953 
L 223.815537 83.989989 
L 236.996364 70.534223 
L 250.17719 75.174143 
L 263.358017 64.270332 
L 276.538843 71.926199 
L 289.719669 74.826149 
L 302.900496 62.530362 
L 316.081322 76.334122 
L 329.262149 75.290141 
L 342.442975 78.886078 
L 355.623802 63.342348 
L 368.804628 86.309949 
L 381.985455 72.854183 
L 395.166281 67.86627 
L 408.347107 63.922338 
L 421.527934 84.337983 
L 434.70876 99.069727 
L 447.889587 97.909747 
L 461.070413 113.917469 
L 474.25124 134.101118 
L 487.432066 129.229202 
L 500.612893 131.897156 
L 513.793719 135.377095 
L 526.974545 75.87013 
L 540.155372 99.997711 
L 553.336198 93.385826 
L 566.517025 88.281915 
L 579.697851 82.250019 
L 592.878678 70.650221 
L 606.059504 81.786028 
L 619.240331 82.134021 
L 632.421157 60.326401 
L 645.601983 96.981763 
L 658.78281 195.928042 
L 671.963636 236.527336 
L 685.144463 238.847296 
L 698.325289 238.963294 
L 711.506116 238.499302 
L 724.686942 238.383304 
L 737.867769 238.731298 
L 751.048595 242.327235 
L 764.229421 233.047397 
L 777.410248 241.631248 
L 790.591074 236.759332 
L 803.771901 229.219463 
L 816.952727 307.750098 
" clip-path="url(#pf9f94b3330)" style="fill: none; stroke: #34d399; stroke-opacity: 0.9; stroke-width: 2.2; stroke-linecap: square"/>
   </g>
   <g id="line2d_27">
    <path d="M 92.007273 343.709472 
L 105.188099 310.882043 
L 118.368926 299.514241 
L 131.549752 290.002406 
L 144.730579 289.074422 
L 157.911405 285.130491 
L 171.092231 292.554362 
L 184.273058 287.566449 
L 197.453884 286.058475 
L 210.634711 285.826479 
L 223.815537 289.19042 
L 236.996364 285.130491 
L 250.17719 289.538414 
L 263.358017 284.550501 
L 276.538843 284.434503 
L 289.719669 285.826479 
L 302.900496 286.986459 
L 316.081322 283.738515 
L 329.262149 291.51038 
L 342.442975 288.61043 
L 355.623802 286.986459 
L 368.804628 285.594483 
L 381.985455 288.61043 
L 395.166281 285.014493 
L 408.347107 285.478485 
L 421.527934 287.102457 
L 434.70876 291.394382 
L 447.889587 290.93039 
L 461.070413 308.562083 
L 474.25124 310.418051 
L 487.432066 300.442225 
L 500.612893 302.762184 
L 513.793719 301.138213 
L 526.974545 286.986459 
L 540.155372 298.122265 
L 553.336198 291.742376 
L 566.517025 291.742376 
L 579.697851 289.306418 
L 592.878678 287.102457 
L 606.059504 288.494432 
L 619.240331 290.582396 
L 632.421157 288.378435 
L 645.601983 293.366348 
L 658.78281 325.381791 
L 671.963636 331.877678 
L 685.144463 331.413686 
L 698.325289 332.92166 
L 711.506116 333.733646 
L 724.686942 331.065692 
L 737.867769 333.617648 
L 751.048595 332.225672 
L 764.229421 331.18169 
L 777.410248 332.805662 
L 790.591074 332.805662 
L 803.771901 331.065692 
L 816.952727 350.553353 
" clip-path="url(#pf9f94b3330)" style="fill: none; stroke-dasharray: 12.8,3.2,2,3.2; stroke-dashoffset: 0; stroke: #a855f7; stroke-opacity: 0.85; stroke-width: 2"/>
   </g>
   <g id="patch_3">
    <path d="M 55.76 382.36 
L 55.76 44.991467 
" style="fill: none; stroke: #334155; stroke-width: 0.8; stroke-linejoin: miter; stroke-linecap: square"/>
   </g>
   <g id="patch_4">
    <path d="M 853.2 382.36 
L 853.2 44.991467 
" style="fill: none; stroke: #334155; stroke-width: 0.8; stroke-linejoin: miter; stroke-linecap: square"/>
   </g>
   <g id="patch_5">
    <path d="M 55.76 382.36 
L 853.2 382.36 
" style="fill: none; stroke: #334155; stroke-width: 0.8; stroke-linejoin: miter; stroke-linecap: square"/>
   </g>
   <g id="patch_6">
    <path d="M 55.76 44.991467 
L 853.2 44.991467 
" style="fill: none; stroke: #334155; stroke-width: 0.8; stroke-linejoin: miter; stroke-linecap: square"/>
   </g>
   <g id="patch_7">
    <path d="M 280.757803 27.884104 
Q 275.671016 39.12103 270.584229 50.357956 
L 272.633988 51.285851 
Q 268.792853 56.133811 264.951719 60.981772 
Q 266.059842 54.896618 267.167964 48.811464 
L 269.217723 49.739359 
Q 274.30451 38.502433 279.391297 27.265508 
L 280.757803 27.884104 
z
" style="fill: #38bdf8"/>
   </g>
   <g id="text_15">
    <g id="patch_8">
     <path d="M 223.815537 23.451573 
L 342.782725 23.451573 
Q 345.782725 23.451573 345.782725 20.451573 
L 345.782725 10.70001 
Q 345.782725 7.70001 342.782725 7.70001 
L 223.815537 7.70001 
Q 220.815537 7.70001 220.815537 10.70001 
L 220.815537 20.451573 
Q 220.815537 23.451573 223.815537 23.451573 
z
" style="fill: #1e293b; stroke: #38bdf8; stroke-width: 1.2; stroke-linejoin: miter"/>
    </g>
    <!-- Peak Ingestion: 261 req/s -->
    <g style="fill: #f8fafc" transform="translate(223.815537 18.103135) scale(0.1 -0.1)">
     <defs>
      <path id="SegoeUI-Bold-50" d="M 1522 1544 
L 1522 0 
L 513 0 
L 513 4481 
L 2094 4481 
Q 3788 4481 3788 3053 
Q 3788 2378 3302 1961 
Q 2816 1544 2003 1544 
L 1522 1544 
z
M 1522 3706 
L 1522 2309 
L 1919 2309 
Q 2725 2309 2725 3016 
Q 2725 3706 1919 3706 
L 1522 3706 
z
" transform="scale(0.015625)"/>
      <path id="SegoeUI-Bold-65" d="M 3291 1319 
L 1203 1319 
Q 1253 622 2081 622 
Q 2609 622 3009 872 
L 3009 159 
Q 2566 -78 1856 -78 
Q 1081 -78 653 351 
Q 225 781 225 1550 
Q 225 2347 687 2812 
Q 1150 3278 1825 3278 
Q 2525 3278 2908 2862 
Q 3291 2447 3291 1734 
L 3291 1319 
z
M 2375 1925 
Q 2375 2613 1819 2613 
Q 1581 2613 1407 2416 
Q 1234 2219 1197 1925 
L 2375 1925 
z
" transform="scale(0.015625)"/>
      <path id="SegoeUI-Bold-61" d="M 3078 0 
L 2144 0 
L 2144 459 
L 2131 459 
Q 1809 -78 1178 -78 
Q 713 -78 445 186 
Q 178 450 178 891 
Q 178 1822 1281 1966 
L 2150 2081 
Q 2150 2606 1581 2606 
Q 1009 2606 494 2266 
L 494 3009 
Q 700 3116 1058 3197 
Q 1416 3278 1709 3278 
Q 3078 3278 3078 1913 
L 3078 0 
z
M 2150 1300 
L 2150 1516 
L 1569 1441 
Q 1088 1378 1088 1006 
Q 1088 838 1205 730 
Q 1322 622 1522 622 
Q 1800 622 1975 814 
Q 2150 1006 2150 1300 
z
" transform="scale(0.015625)"/>
      <path id="SegoeUI-Bold-6b" d="M 3622 0 
L 2438 0 
L 1416 1588 
L 1403 1588 
L 1403 0 
L 416 0 
L 416 4738 
L 1403 4738 
L 1403 1722 
L 1416 1722 
L 2369 3200 
L 3541 3200 
L 2394 1697 
L 3622 0 
z
" transform="scale(0.015625)"/>
      <path id="SegoeUI-Bold-20" transform="scale(0.015625)"/>
      <path id="SegoeUI-Bold-49" d="M 1522 0 
L 513 0 
L 513 4481 
L 1522 4481 
L 1522 0 
z
" transform="scale(0.015625)"/>
      <path id="SegoeUI-Bold-6e" d="M 3506 0 
L 2522 0 
L 2522 1778 
Q 2522 2522 1991 2522 
Q 1734 2522 1568 2325 
Q 1403 2128 1403 1825 
L 1403 0 
L 416 0 
L 416 3200 
L 1403 3200 
L 1403 2694 
L 1416 2694 
Q 1769 3278 2444 3278 
Q 3506 3278 3506 1959 
L 3506 0 
z
" transform="scale(0.015625)"/>
      <path id="SegoeUI-Bold-67" d="M 3553 366 
Q 3553 -525 3037 -1014 
Q 2522 -1503 1544 -1503 
Q 897 -1503 519 -1319 
L 519 -488 
Q 1013 -775 1516 -775 
Q 2016 -775 2291 -511 
Q 2566 -247 2566 206 
L 2566 459 
L 2553 459 
Q 2216 -78 1556 -78 
Q 944 -78 584 353 
Q 225 784 225 1509 
Q 225 2322 625 2800 
Q 1025 3278 1678 3278 
Q 2263 3278 2553 2828 
L 2566 2828 
L 2566 3200 
L 3553 3200 
L 3553 366 
z
M 2578 1538 
L 2578 1791 
Q 2578 2094 2398 2308 
Q 2219 2522 1931 2522 
Q 1603 2522 1415 2265 
Q 1228 2009 1228 1544 
Q 1228 1144 1406 911 
Q 1584 678 1894 678 
Q 2200 678 2389 914 
Q 2578 1150 2578 1538 
z
" transform="scale(0.015625)"/>
      <path id="SegoeUI-Bold-73" d="M 206 84 
L 206 884 
Q 450 738 692 666 
Q 934 594 1150 594 
Q 1413 594 1564 666 
Q 1716 738 1716 884 
Q 1716 978 1647 1040 
Q 1578 1103 1470 1150 
Q 1363 1197 1234 1234 
Q 1106 1272 988 1319 
Q 797 1391 651 1473 
Q 506 1556 407 1665 
Q 309 1775 257 1919 
Q 206 2063 206 2259 
Q 206 2528 323 2722 
Q 441 2916 636 3039 
Q 831 3163 1082 3220 
Q 1334 3278 1606 3278 
Q 1819 3278 2037 3245 
Q 2256 3213 2469 3150 
L 2469 2388 
Q 2281 2497 2067 2551 
Q 1853 2606 1647 2606 
Q 1550 2606 1464 2589 
Q 1378 2572 1312 2539 
Q 1247 2506 1209 2454 
Q 1172 2403 1172 2338 
Q 1172 2250 1228 2187 
Q 1284 2125 1375 2079 
Q 1466 2034 1577 1998 
Q 1688 1963 1797 1925 
Q 1994 1856 2153 1775 
Q 2313 1694 2427 1584 
Q 2541 1475 2602 1328 
Q 2663 1181 2663 978 
Q 2663 694 2539 492 
Q 2416 291 2211 164 
Q 2006 38 1739 -20 
Q 1472 -78 1184 -78 
Q 656 -78 206 84 
z
" transform="scale(0.015625)"/>
      <path id="SegoeUI-Bold-74" d="M 2350 38 
Q 2131 -78 1691 -78 
Q 647 -78 647 1006 
L 647 2472 
L 128 2472 
L 128 3200 
L 647 3200 
L 647 3891 
L 1631 4172 
L 1631 3200 
L 2350 3200 
L 2350 2472 
L 1631 2472 
L 1631 1178 
Q 1631 678 2028 678 
Q 2184 678 2350 769 
L 2350 38 
z
" transform="scale(0.015625)"/>
      <path id="SegoeUI-Bold-69" d="M 916 3706 
Q 666 3706 506 3854 
Q 347 4003 347 4219 
Q 347 4441 506 4581 
Q 666 4722 916 4722 
Q 1169 4722 1326 4581 
Q 1484 4441 1484 4219 
Q 1484 3994 1326 3850 
Q 1169 3706 916 3706 
z
M 1403 0 
L 416 0 
L 416 3200 
L 1403 3200 
L 1403 0 
z
" transform="scale(0.015625)"/>
      <path id="SegoeUI-Bold-6f" d="M 1941 -78 
Q 1141 -78 683 370 
Q 225 819 225 1588 
Q 225 2381 700 2829 
Q 1175 3278 1984 3278 
Q 2781 3278 3234 2829 
Q 3688 2381 3688 1644 
Q 3688 847 3220 384 
Q 2753 -78 1941 -78 
z
M 1966 2522 
Q 1616 2522 1422 2281 
Q 1228 2041 1228 1600 
Q 1228 678 1972 678 
Q 2681 678 2681 1625 
Q 2681 2522 1966 2522 
z
" transform="scale(0.015625)"/>
      <path id="SegoeUI-Bold-3a" d="M 856 2209 
Q 613 2209 450 2357 
Q 288 2506 288 2725 
Q 288 2950 455 3094 
Q 622 3238 872 3238 
Q 1125 3238 1286 3092 
Q 1447 2947 1447 2725 
Q 1447 2497 1283 2353 
Q 1119 2209 856 2209 
z
M 856 -78 
Q 613 -78 450 72 
Q 288 222 288 441 
Q 288 666 455 809 
Q 622 953 872 953 
Q 1125 953 1286 808 
Q 1447 663 1447 441 
Q 1447 213 1283 67 
Q 1119 -78 856 -78 
z
" transform="scale(0.015625)"/>
      <path id="SegoeUI-Bold-32" d="M 1341 819 
L 3241 819 
L 3241 0 
L 259 0 
L 259 338 
Q 259 681 375 954 
Q 491 1228 666 1445 
Q 841 1663 1048 1830 
Q 1256 1997 1444 2131 
Q 1641 2272 1789 2400 
Q 1938 2528 2039 2654 
Q 2141 2781 2191 2911 
Q 2241 3041 2241 3188 
Q 2241 3475 2078 3622 
Q 1916 3769 1581 3769 
Q 1003 3769 475 3309 
L 475 4178 
Q 1059 4556 1794 4556 
Q 2134 4556 2404 4467 
Q 2675 4378 2862 4212 
Q 3050 4047 3148 3811 
Q 3247 3575 3247 3284 
Q 3247 2975 3151 2734 
Q 3056 2494 2898 2297 
Q 2741 2100 2534 1936 
Q 2328 1772 2106 1619 
Q 1956 1513 1817 1408 
Q 1678 1303 1572 1201 
Q 1466 1100 1403 1003 
Q 1341 906 1341 819 
z
" transform="scale(0.015625)"/>
      <path id="SegoeUI-Bold-36" d="M 3469 1491 
Q 3469 1159 3353 871 
Q 3238 584 3031 373 
Q 2825 163 2540 42 
Q 2256 -78 1919 -78 
Q 1541 -78 1242 62 
Q 944 203 737 470 
Q 531 738 422 1125 
Q 313 1513 313 2003 
Q 313 2581 455 3051 
Q 597 3522 861 3856 
Q 1125 4191 1500 4373 
Q 1875 4556 2344 4556 
Q 2863 4556 3150 4434 
L 3150 3609 
Q 2809 3803 2406 3803 
Q 2156 3803 1953 3706 
Q 1750 3609 1604 3431 
Q 1459 3253 1376 3001 
Q 1294 2750 1288 2441 
L 1306 2441 
Q 1625 2881 2247 2881 
Q 2525 2881 2750 2781 
Q 2975 2681 3134 2498 
Q 3294 2316 3381 2059 
Q 3469 1803 3469 1491 
z
M 2503 1428 
Q 2503 2150 1913 2150 
Q 1778 2150 1668 2100 
Q 1559 2050 1481 1959 
Q 1403 1869 1361 1745 
Q 1319 1622 1319 1472 
Q 1319 1306 1362 1162 
Q 1406 1019 1486 911 
Q 1566 803 1675 740 
Q 1784 678 1919 678 
Q 2053 678 2161 733 
Q 2269 788 2345 886 
Q 2422 984 2462 1123 
Q 2503 1263 2503 1428 
z
" transform="scale(0.015625)"/>
      <path id="SegoeUI-Bold-31" d="M 2600 4581 
L 2600 0 
L 1616 0 
L 1616 3469 
Q 1534 3397 1423 3333 
Q 1313 3269 1188 3217 
Q 1063 3166 928 3130 
Q 794 3094 663 3078 
L 663 3909 
Q 1047 4022 1387 4197 
Q 1728 4372 2003 4581 
L 2600 4581 
z
" transform="scale(0.015625)"/>
      <path id="SegoeUI-Bold-72" d="M 2503 2309 
Q 2325 2406 2088 2406 
Q 1766 2406 1584 2170 
Q 1403 1934 1403 1528 
L 1403 0 
L 416 0 
L 416 3200 
L 1403 3200 
L 1403 2606 
L 1416 2606 
Q 1650 3256 2259 3256 
Q 2416 3256 2503 3219 
L 2503 2309 
z
" transform="scale(0.015625)"/>
      <path id="SegoeUI-Bold-71" d="M 3547 -1472 
L 2559 -1472 
L 2559 441 
L 2547 441 
Q 2213 -78 1563 -78 
Q 959 -78 592 342 
Q 225 763 225 1522 
Q 225 2322 628 2800 
Q 1031 3278 1678 3278 
Q 2266 3278 2547 2828 
L 2559 2828 
L 2559 3200 
L 3547 3200 
L 3547 -1472 
z
M 2578 1528 
L 2578 1784 
Q 2578 2097 2397 2309 
Q 2216 2522 1931 2522 
Q 1603 2522 1415 2264 
Q 1228 2006 1228 1550 
Q 1228 1141 1411 909 
Q 1594 678 1888 678 
Q 2200 678 2389 912 
Q 2578 1147 2578 1528 
z
" transform="scale(0.015625)"/>
      <path id="SegoeUI-Bold-2f" d="M 2913 4481 
L 728 -744 
L -153 -744 
L 2022 4481 
L 2913 4481 
z
" transform="scale(0.015625)"/>
     </defs>
     <use xlink:href="#SegoeUI-Bold-50"/>
     <use xlink:href="#SegoeUI-Bold-65" x="58.425781"/>
     <use xlink:href="#SegoeUI-Bold-61" x="112.527344"/>
     <use xlink:href="#SegoeUI-Bold-6b" x="166.335938"/>
     <use xlink:href="#SegoeUI-Bold-20" x="222.244141"/>
     <use xlink:href="#SegoeUI-Bold-49" x="249.832031"/>
     <use xlink:href="#SegoeUI-Bold-6e" x="281.521484"/>
     <use xlink:href="#SegoeUI-Bold-67" x="342.019531"/>
     <use xlink:href="#SegoeUI-Bold-65" x="403.933594"/>
     <use xlink:href="#SegoeUI-Bold-73" x="458.035156"/>
     <use xlink:href="#SegoeUI-Bold-74" x="502.029297"/>
     <use xlink:href="#SegoeUI-Bold-69" x="540.945312"/>
     <use xlink:href="#SegoeUI-Bold-6f" x="569.363281"/>
     <use xlink:href="#SegoeUI-Bold-6e" x="630.496094"/>
     <use xlink:href="#SegoeUI-Bold-3a" x="690.994141"/>
     <use xlink:href="#SegoeUI-Bold-20" x="718.09375"/>
     <use xlink:href="#SegoeUI-Bold-32" x="745.681641"/>
     <use xlink:href="#SegoeUI-Bold-36" x="803.201172"/>
     <use xlink:href="#SegoeUI-Bold-31" x="860.720703"/>
     <use xlink:href="#SegoeUI-Bold-20" x="918.240234"/>
     <use xlink:href="#SegoeUI-Bold-72" x="945.828125"/>
     <use xlink:href="#SegoeUI-Bold-65" x="985.248047"/>
     <use xlink:href="#SegoeUI-Bold-71" x="1039.349609"/>
     <use xlink:href="#SegoeUI-Bold-2f" x="1101.263672"/>
     <use xlink:href="#SegoeUI-Bold-73" x="1145.599609"/>
    </g>
   </g>
   <g id="text_16">
    <!-- End-to-End Pipeline Throughput Under Soak Test -->
    <g style="fill: #f8fafc" transform="translate(269.5325 26.991467) scale(0.16 -0.16)">
     <defs>
      <path id="SegoeUI-Bold-45" d="M 3200 0 
L 513 0 
L 513 4481 
L 3097 4481 
L 3097 3659 
L 1522 3659 
L 1522 2663 
L 2988 2663 
L 2988 1844 
L 1522 1844 
L 1522 819 
L 3200 819 
L 3200 0 
z
" transform="scale(0.015625)"/>
      <path id="SegoeUI-Bold-64" d="M 3547 0 
L 2559 0 
L 2559 441 
L 2547 441 
Q 2209 -78 1556 -78 
Q 956 -78 590 345 
Q 225 769 225 1528 
Q 225 2322 628 2800 
Q 1031 3278 1684 3278 
Q 2303 3278 2547 2834 
L 2559 2834 
L 2559 4738 
L 3547 4738 
L 3547 0 
z
M 2578 1556 
L 2578 1797 
Q 2578 2109 2397 2315 
Q 2216 2522 1925 2522 
Q 1597 2522 1412 2264 
Q 1228 2006 1228 1556 
Q 1228 1134 1406 906 
Q 1584 678 1900 678 
Q 2200 678 2389 918 
Q 2578 1159 2578 1556 
z
" transform="scale(0.015625)"/>
      <path id="SegoeUI-Bold-2d" d="M 2156 1363 
L 447 1363 
L 447 2053 
L 2156 2053 
L 2156 1363 
z
" transform="scale(0.015625)"/>
      <path id="SegoeUI-Bold-70" d="M 1416 372 
L 1403 372 
L 1403 -1472 
L 416 -1472 
L 416 3200 
L 1403 3200 
L 1403 2719 
L 1416 2719 
Q 1781 3278 2444 3278 
Q 3066 3278 3405 2851 
Q 3744 2425 3744 1691 
Q 3744 891 3348 406 
Q 2953 -78 2297 -78 
Q 1719 -78 1416 372 
z
M 1388 1684 
L 1388 1428 
Q 1388 1097 1563 887 
Q 1738 678 2022 678 
Q 2359 678 2545 939 
Q 2731 1200 2731 1678 
Q 2731 2522 2075 2522 
Q 1772 2522 1580 2292 
Q 1388 2063 1388 1684 
z
" transform="scale(0.015625)"/>
      <path id="SegoeUI-Bold-6c" d="M 1403 0 
L 416 0 
L 416 4738 
L 1403 4738 
L 1403 0 
z
" transform="scale(0.015625)"/>
      <path id="SegoeUI-Bold-54" d="M 3659 3659 
L 2381 3659 
L 2381 0 
L 1369 0 
L 1369 3659 
L 97 3659 
L 97 4481 
L 3659 4481 
L 3659 3659 
z
" transform="scale(0.015625)"/>
      <path id="SegoeUI-Bold-68" d="M 3488 0 
L 2503 0 
L 2503 1819 
Q 2503 2522 1991 2522 
Q 1728 2522 1565 2325 
Q 1403 2128 1403 1825 
L 1403 0 
L 416 0 
L 416 4738 
L 1403 4738 
L 1403 2725 
L 1416 2725 
Q 1778 3278 2400 3278 
Q 3488 3278 3488 1966 
L 3488 0 
z
" transform="scale(0.015625)"/>
      <path id="SegoeUI-Bold-75" d="M 3456 0 
L 2472 0 
L 2472 488 
L 2456 488 
Q 2091 -78 1478 -78 
Q 366 -78 366 1269 
L 366 3200 
L 1350 3200 
L 1350 1356 
Q 1350 678 1888 678 
Q 2153 678 2312 864 
Q 2472 1050 2472 1369 
L 2472 3200 
L 3456 3200 
L 3456 0 
z
" transform="scale(0.015625)"/>
      <path id="SegoeUI-Bold-55" d="M 4166 1941 
Q 4166 -78 2284 -78 
Q 459 -78 459 1894 
L 459 4481 
L 1472 4481 
L 1472 1881 
Q 1472 794 2322 794 
Q 3156 794 3156 1844 
L 3156 4481 
L 4166 4481 
L 4166 1941 
z
" transform="scale(0.015625)"/>
      <path id="SegoeUI-Bold-53" d="M 306 172 
L 306 1172 
Q 578 944 897 830 
Q 1216 716 1541 716 
Q 1731 716 1873 750 
Q 2016 784 2111 845 
Q 2206 906 2253 989 
Q 2300 1072 2300 1169 
Q 2300 1300 2225 1403 
Q 2150 1506 2020 1593 
Q 1891 1681 1712 1762 
Q 1534 1844 1328 1928 
Q 803 2147 545 2462 
Q 288 2778 288 3225 
Q 288 3575 428 3826 
Q 569 4078 811 4240 
Q 1053 4403 1372 4479 
Q 1691 4556 2047 4556 
Q 2397 4556 2667 4514 
Q 2938 4472 3166 4384 
L 3166 3450 
Q 3053 3528 2920 3587 
Q 2788 3647 2647 3686 
Q 2506 3725 2367 3744 
Q 2228 3763 2103 3763 
Q 1931 3763 1790 3730 
Q 1650 3697 1553 3637 
Q 1456 3578 1403 3495 
Q 1350 3413 1350 3309 
Q 1350 3197 1409 3108 
Q 1469 3019 1578 2939 
Q 1688 2859 1844 2782 
Q 2000 2706 2197 2625 
Q 2466 2513 2680 2386 
Q 2894 2259 3047 2100 
Q 3200 1941 3281 1736 
Q 3363 1531 3363 1259 
Q 3363 884 3220 629 
Q 3078 375 2834 217 
Q 2591 59 2267 -9 
Q 1944 -78 1584 -78 
Q 1216 -78 883 -15 
Q 550 47 306 172 
z
" transform="scale(0.015625)"/>
     </defs>
     <use xlink:href="#SegoeUI-Bold-45"/>
     <use xlink:href="#SegoeUI-Bold-6e" x="53.222656"/>
     <use xlink:href="#SegoeUI-Bold-64" x="113.720703"/>
     <use xlink:href="#SegoeUI-Bold-2d" x="175.634766"/>
     <use xlink:href="#SegoeUI-Bold-74" x="216.064453"/>
     <use xlink:href="#SegoeUI-Bold-6f" x="254.605469"/>
     <use xlink:href="#SegoeUI-Bold-2d" x="315.738281"/>
     <use xlink:href="#SegoeUI-Bold-45" x="356.167969"/>
     <use xlink:href="#SegoeUI-Bold-6e" x="409.390625"/>
     <use xlink:href="#SegoeUI-Bold-64" x="469.888672"/>
     <use xlink:href="#SegoeUI-Bold-20" x="531.802734"/>
     <use xlink:href="#SegoeUI-Bold-50" x="559.390625"/>
     <use xlink:href="#SegoeUI-Bold-69" x="620.816406"/>
     <use xlink:href="#SegoeUI-Bold-70" x="649.234375"/>
     <use xlink:href="#SegoeUI-Bold-65" x="711.246094"/>
     <use xlink:href="#SegoeUI-Bold-6c" x="765.347656"/>
     <use xlink:href="#SegoeUI-Bold-69" x="793.765625"/>
     <use xlink:href="#SegoeUI-Bold-6e" x="822.183594"/>
     <use xlink:href="#SegoeUI-Bold-65" x="882.681641"/>
     <use xlink:href="#SegoeUI-Bold-20" x="936.783203"/>
     <use xlink:href="#SegoeUI-Bold-54" x="964.371094"/>
     <use xlink:href="#SegoeUI-Bold-68" x="1022.964844"/>
     <use xlink:href="#SegoeUI-Bold-72" x="1083.169922"/>
     <use xlink:href="#SegoeUI-Bold-6f" x="1122.589844"/>
     <use xlink:href="#SegoeUI-Bold-75" x="1183.722656"/>
     <use xlink:href="#SegoeUI-Bold-67" x="1244.220703"/>
     <use xlink:href="#SegoeUI-Bold-68" x="1306.134766"/>
     <use xlink:href="#SegoeUI-Bold-70" x="1366.339844"/>
     <use xlink:href="#SegoeUI-Bold-75" x="1428.351562"/>
     <use xlink:href="#SegoeUI-Bold-74" x="1488.849609"/>
     <use xlink:href="#SegoeUI-Bold-20" x="1527.765625"/>
     <use xlink:href="#SegoeUI-Bold-55" x="1555.353516"/>
     <use xlink:href="#SegoeUI-Bold-6e" x="1627.667969"/>
     <use xlink:href="#SegoeUI-Bold-64" x="1688.166016"/>
     <use xlink:href="#SegoeUI-Bold-65" x="1750.080078"/>
     <use xlink:href="#SegoeUI-Bold-72" x="1804.181641"/>
     <use xlink:href="#SegoeUI-Bold-20" x="1843.976562"/>
     <use xlink:href="#SegoeUI-Bold-53" x="1871.564453"/>
     <use xlink:href="#SegoeUI-Bold-6f" x="1927.619141"/>
     <use xlink:href="#SegoeUI-Bold-61" x="1987.751953"/>
     <use xlink:href="#SegoeUI-Bold-6b" x="2041.560547"/>
     <use xlink:href="#SegoeUI-Bold-20" x="2097.46875"/>
     <use xlink:href="#SegoeUI-Bold-54" x="2125.056641"/>
     <use xlink:href="#SegoeUI-Bold-65" x="2174.650391"/>
     <use xlink:href="#SegoeUI-Bold-73" x="2228.751953"/>
     <use xlink:href="#SegoeUI-Bold-74" x="2272.746094"/>
    </g>
   </g>
   <g id="legend_1">
    <g id="patch_9">
     <path d="M 655.665625 97.207092 
L 846.2 97.207092 
Q 848.2 97.207092 848.2 95.207092 
L 848.2 51.991467 
Q 848.2 49.991467 846.2 49.991467 
L 655.665625 49.991467 
Q 653.665625 49.991467 653.665625 51.991467 
L 653.665625 95.207092 
Q 653.665625 97.207092 655.665625 97.207092 
z
" style="fill: #1e293b; opacity: 0.8; stroke: #334155; stroke-linejoin: miter"/>
    </g>
    <g id="line2d_28">
     <path d="M 657.665625 57.894592 
L 667.665625 57.894592 
L 677.665625 57.894592 
" style="fill: none; stroke: #38bdf8; stroke-opacity: 0.95; stroke-width: 2.5; stroke-linecap: square"/>
    </g>
    <g id="text_17">
     <!-- API Ingestion Throughput (req/sec) -->
     <g style="fill: #f8fafc" transform="translate(685.665625 61.394592) scale(0.1 -0.1)">
      <defs>
       <path id="SegoeUI-41" d="M 4056 0 
L 3475 0 
L 3000 1256 
L 1100 1256 
L 653 0 
L 69 0 
L 1788 4481 
L 2331 4481 
L 4056 0 
z
M 2828 1728 
L 2125 3638 
Q 2091 3731 2056 3938 
L 2044 3938 
Q 2013 3747 1972 3638 
L 1275 1728 
L 2828 1728 
z
" transform="scale(0.015625)"/>
       <path id="SegoeUI-50" d="M 1113 1694 
L 1113 0 
L 588 0 
L 588 4481 
L 1819 4481 
Q 2538 4481 2933 4131 
Q 3328 3781 3328 3144 
Q 3328 2506 2889 2100 
Q 2450 1694 1703 1694 
L 1113 1694 
z
M 1113 4006 
L 1113 2169 
L 1663 2169 
Q 2206 2169 2492 2417 
Q 2778 2666 2778 3119 
Q 2778 4006 1728 4006 
L 1113 4006 
z
" transform="scale(0.015625)"/>
       <path id="SegoeUI-49" d="M 1113 0 
L 588 0 
L 588 4481 
L 1113 4481 
L 1113 0 
z
" transform="scale(0.015625)"/>
       <path id="SegoeUI-71" d="M 3250 -1472 
L 2738 -1472 
L 2738 550 
L 2725 550 
Q 2391 -75 1631 -75 
Q 1028 -75 664 354 
Q 300 784 300 1525 
Q 300 2322 700 2798 
Q 1100 3275 1775 3275 
Q 2431 3275 2725 2756 
L 2738 2756 
L 2738 3200 
L 3250 3200 
L 3250 -1472 
z
M 2738 1441 
L 2738 1906 
Q 2738 2300 2480 2572 
Q 2222 2844 1825 2844 
Q 1363 2844 1094 2501 
Q 825 2159 825 1538 
Q 825 984 1084 670 
Q 1344 356 1753 356 
Q 2203 356 2470 664 
Q 2738 972 2738 1441 
z
" transform="scale(0.015625)"/>
      </defs>
      <use xlink:href="#SegoeUI-41"/>
      <use xlink:href="#SegoeUI-50" x="64.501953"/>
      <use xlink:href="#SegoeUI-49" x="120.507812"/>
      <use xlink:href="#SegoeUI-20" x="147.119141"/>
      <use xlink:href="#SegoeUI-49" x="174.511719"/>
      <use xlink:href="#SegoeUI-6e" x="201.123047"/>
      <use xlink:href="#SegoeUI-67" x="257.714844"/>
      <use xlink:href="#SegoeUI-65" x="316.601562"/>
      <use xlink:href="#SegoeUI-73" x="368.896484"/>
      <use xlink:href="#SegoeUI-74" x="411.328125"/>
      <use xlink:href="#SegoeUI-69" x="445.214844"/>
      <use xlink:href="#SegoeUI-6f" x="469.433594"/>
      <use xlink:href="#SegoeUI-6e" x="528.027344"/>
      <use xlink:href="#SegoeUI-20" x="584.619141"/>
      <use xlink:href="#SegoeUI-54" x="612.011719"/>
      <use xlink:href="#SegoeUI-68" x="664.404297"/>
      <use xlink:href="#SegoeUI-72" x="720.996094"/>
      <use xlink:href="#SegoeUI-6f" x="754.386719"/>
      <use xlink:href="#SegoeUI-75" x="812.980469"/>
      <use xlink:href="#SegoeUI-67" x="869.572266"/>
      <use xlink:href="#SegoeUI-68" x="928.458984"/>
      <use xlink:href="#SegoeUI-70" x="985.050781"/>
      <use xlink:href="#SegoeUI-75" x="1043.839844"/>
      <use xlink:href="#SegoeUI-74" x="1100.431641"/>
      <use xlink:href="#SegoeUI-20" x="1134.318359"/>
      <use xlink:href="#SegoeUI-28" x="1161.710938"/>
      <use xlink:href="#SegoeUI-72" x="1191.886719"/>
      <use xlink:href="#SegoeUI-65" x="1225.277344"/>
      <use xlink:href="#SegoeUI-71" x="1277.572266"/>
      <use xlink:href="#SegoeUI-2f" x="1336.458984"/>
      <use xlink:href="#SegoeUI-73" x="1375.423828"/>
      <use xlink:href="#SegoeUI-65" x="1417.855469"/>
      <use xlink:href="#SegoeUI-63" x="1470.150391"/>
      <use xlink:href="#SegoeUI-29" x="1516.341797"/>
     </g>
    </g>
    <g id="line2d_29">
     <path d="M 657.665625 72.650842 
L 667.665625 72.650842 
L 677.665625 72.650842 
" style="fill: none; stroke: #34d399; stroke-opacity: 0.9; stroke-width: 2.2; stroke-linecap: square"/>
    </g>
    <g id="text_18">
     <!-- Redis In-Memory Sink (events/sec) -->
     <g style="fill: #f8fafc" transform="translate(685.665625 76.150842) scale(0.1 -0.1)">
      <defs>
       <path id="SegoeUI-52" d="M 3800 0 
L 3175 0 
L 2425 1256 
Q 2322 1431 2225 1554 
Q 2128 1678 2026 1756 
Q 1925 1834 1808 1870 
Q 1691 1906 1544 1906 
L 1113 1906 
L 1113 0 
L 588 0 
L 588 4481 
L 1925 4481 
Q 2219 4481 2467 4407 
Q 2716 4334 2898 4184 
Q 3081 4034 3184 3811 
Q 3288 3588 3288 3288 
Q 3288 3053 3217 2858 
Q 3147 2663 3017 2509 
Q 2888 2356 2705 2248 
Q 2522 2141 2294 2081 
L 2294 2069 
Q 2406 2019 2489 1955 
Q 2572 1891 2647 1803 
Q 2722 1716 2795 1605 
Q 2869 1494 2959 1347 
L 3800 0 
z
M 1113 4006 
L 1113 2381 
L 1825 2381 
Q 2022 2381 2189 2440 
Q 2356 2500 2478 2611 
Q 2600 2722 2669 2883 
Q 2738 3044 2738 3244 
Q 2738 3603 2505 3804 
Q 2272 4006 1831 4006 
L 1113 4006 
z
" transform="scale(0.015625)"/>
       <path id="SegoeUI-2d" d="M 2156 1581 
L 450 1581 
L 450 1984 
L 2156 1984 
L 2156 1581 
z
" transform="scale(0.015625)"/>
       <path id="SegoeUI-4d" d="M 5156 0 
L 4634 0 
L 4634 3006 
Q 4634 3363 4678 3878 
L 4666 3878 
Q 4591 3575 4531 3444 
L 3000 0 
L 2744 0 
L 1216 3419 
Q 1150 3569 1081 3878 
L 1069 3878 
Q 1094 3609 1094 3000 
L 1094 0 
L 588 0 
L 588 4481 
L 1281 4481 
L 2656 1356 
Q 2816 997 2863 819 
L 2881 819 
Q 3016 1188 3097 1369 
L 4500 4481 
L 5156 4481 
L 5156 0 
z
" transform="scale(0.015625)"/>
       <path id="SegoeUI-79" d="M 3066 3200 
L 1594 -513 
Q 1200 -1506 488 -1506 
Q 288 -1506 153 -1466 
L 153 -1006 
Q 319 -1063 456 -1063 
Q 844 -1063 1038 -600 
L 1294 6 
L 44 3200 
L 613 3200 
L 1478 738 
Q 1494 691 1544 494 
L 1563 494 
Q 1578 569 1625 731 
L 2534 3200 
L 3066 3200 
z
" transform="scale(0.015625)"/>
       <path id="SegoeUI-6b" d="M 3175 0 
L 2456 0 
L 1044 1538 
L 1031 1538 
L 1031 0 
L 519 0 
L 519 4738 
L 1031 4738 
L 1031 1734 
L 1044 1734 
L 2388 3200 
L 3059 3200 
L 1575 1656 
L 3175 0 
z
" transform="scale(0.015625)"/>
       <path id="SegoeUI-76" d="M 3034 3200 
L 1759 0 
L 1256 0 
L 44 3200 
L 606 3200 
L 1419 875 
Q 1509 619 1531 428 
L 1544 428 
Q 1575 669 1644 863 
L 2494 3200 
L 3034 3200 
z
" transform="scale(0.015625)"/>
      </defs>
      <use xlink:href="#SegoeUI-52"/>
      <use xlink:href="#SegoeUI-65" x="57.064453"/>
      <use xlink:href="#SegoeUI-64" x="109.359375"/>
      <use xlink:href="#SegoeUI-69" x="168.246094"/>
      <use xlink:href="#SegoeUI-73" x="192.464844"/>
      <use xlink:href="#SegoeUI-20" x="234.896484"/>
      <use xlink:href="#SegoeUI-49" x="262.289062"/>
      <use xlink:href="#SegoeUI-6e" x="288.900391"/>
      <use xlink:href="#SegoeUI-2d" x="345.492188"/>
      <use xlink:href="#SegoeUI-4d" x="385.482422"/>
      <use xlink:href="#SegoeUI-65" x="475.277344"/>
      <use xlink:href="#SegoeUI-6d" x="527.572266"/>
      <use xlink:href="#SegoeUI-6f" x="613.705078"/>
      <use xlink:href="#SegoeUI-72" x="672.298828"/>
      <use xlink:href="#SegoeUI-79" x="711.064453"/>
      <use xlink:href="#SegoeUI-20" x="759.453125"/>
      <use xlink:href="#SegoeUI-53" x="786.845703"/>
      <use xlink:href="#SegoeUI-69" x="839.970703"/>
      <use xlink:href="#SegoeUI-6e" x="864.189453"/>
      <use xlink:href="#SegoeUI-6b" x="920.78125"/>
      <use xlink:href="#SegoeUI-20" x="970.488281"/>
      <use xlink:href="#SegoeUI-28" x="997.880859"/>
      <use xlink:href="#SegoeUI-65" x="1028.056641"/>
      <use xlink:href="#SegoeUI-76" x="1080.351562"/>
      <use xlink:href="#SegoeUI-65" x="1127.626953"/>
      <use xlink:href="#SegoeUI-6e" x="1179.921875"/>
      <use xlink:href="#SegoeUI-74" x="1236.513672"/>
      <use xlink:href="#SegoeUI-73" x="1270.400391"/>
      <use xlink:href="#SegoeUI-2f" x="1312.832031"/>
      <use xlink:href="#SegoeUI-73" x="1351.796875"/>
      <use xlink:href="#SegoeUI-65" x="1394.228516"/>
      <use xlink:href="#SegoeUI-63" x="1446.523438"/>
      <use xlink:href="#SegoeUI-29" x="1492.714844"/>
     </g>
    </g>
    <g id="line2d_30">
     <path d="M 657.665625 87.407092 
L 667.665625 87.407092 
L 677.665625 87.407092 
" style="fill: none; stroke-dasharray: 12.8,3.2,2,3.2; stroke-dashoffset: 0; stroke: #a855f7; stroke-opacity: 0.85; stroke-width: 2"/>
    </g>
    <g id="text_19">
     <!-- Elasticsearch Index Sink (events/sec) -->
     <g style="fill: #f8fafc" transform="translate(685.665625 90.907092) scale(0.1 -0.1)">
      <defs>
       <path id="SegoeUI-78" d="M 2856 3200 
L 1781 1581 
L 2838 0 
L 2241 0 
L 1613 1038 
Q 1553 1134 1472 1281 
L 1459 1281 
Q 1444 1253 1313 1038 
L 672 0 
L 81 0 
L 1172 1569 
L 128 3200 
L 725 3200 
L 1344 2106 
Q 1413 1984 1478 1856 
L 1491 1856 
L 2291 3200 
L 2856 3200 
z
" transform="scale(0.015625)"/>
      </defs>
      <use xlink:href="#SegoeUI-45"/>
      <use xlink:href="#SegoeUI-6c" x="50.585938"/>
      <use xlink:href="#SegoeUI-61" x="74.804688"/>
      <use xlink:href="#SegoeUI-73" x="125.683594"/>
      <use xlink:href="#SegoeUI-74" x="168.115234"/>
      <use xlink:href="#SegoeUI-69" x="202.001953"/>
      <use xlink:href="#SegoeUI-63" x="226.220703"/>
      <use xlink:href="#SegoeUI-73" x="272.412109"/>
      <use xlink:href="#SegoeUI-65" x="314.84375"/>
      <use xlink:href="#SegoeUI-61" x="367.138672"/>
      <use xlink:href="#SegoeUI-72" x="418.017578"/>
      <use xlink:href="#SegoeUI-63" x="451.408203"/>
      <use xlink:href="#SegoeUI-68" x="497.599609"/>
      <use xlink:href="#SegoeUI-20" x="554.191406"/>
      <use xlink:href="#SegoeUI-49" x="581.583984"/>
      <use xlink:href="#SegoeUI-6e" x="608.195312"/>
      <use xlink:href="#SegoeUI-64" x="664.787109"/>
      <use xlink:href="#SegoeUI-65" x="723.673828"/>
      <use xlink:href="#SegoeUI-78" x="775.96875"/>
      <use xlink:href="#SegoeUI-20" x="821.867188"/>
      <use xlink:href="#SegoeUI-53" x="849.259766"/>
      <use xlink:href="#SegoeUI-69" x="902.384766"/>
      <use xlink:href="#SegoeUI-6e" x="926.603516"/>
      <use xlink:href="#SegoeUI-6b" x="983.195312"/>
      <use xlink:href="#SegoeUI-20" x="1032.902344"/>
      <use xlink:href="#SegoeUI-28" x="1060.294922"/>
      <use xlink:href="#SegoeUI-65" x="1090.470703"/>
      <use xlink:href="#SegoeUI-76" x="1142.765625"/>
      <use xlink:href="#SegoeUI-65" x="1190.041016"/>
      <use xlink:href="#SegoeUI-6e" x="1242.335938"/>
      <use xlink:href="#SegoeUI-74" x="1298.927734"/>
      <use xlink:href="#SegoeUI-73" x="1332.814453"/>
      <use xlink:href="#SegoeUI-2f" x="1375.246094"/>
      <use xlink:href="#SegoeUI-73" x="1414.210938"/>
      <use xlink:href="#SegoeUI-65" x="1456.642578"/>
      <use xlink:href="#SegoeUI-63" x="1508.9375"/>
      <use xlink:href="#SegoeUI-29" x="1555.128906"/>
     </g>
    </g>
   </g>
  </g>
 </g>
 <defs>
  <clipPath id="pf9f94b3330">
   <rect x="55.76" y="44.991467" width="797.44" height="337.368533"/>
  </clipPath>
 </defs>
</svg>
